<?xml version="1.0" encoding="utf-8"?>
<!-- Svg Vector Icons : http://www.onlinewebfonts.com/icon -->
<!DOCTYPE svg PUBLIC "-//W3C//DTD SVG 1.1//EN" "http://www.w3.org/Graphics/SVG/1.1/DTD/svg11.dtd">
<svg version="1.1" xmlns="http://www.w3.org/2000/svg" xmlns:xlink="http://www.w3.org/1999/xlink" x="0px" y="0px" viewBox="0 0 1000 1000" enable-background="new 0 0 1000 1000" xml:space="preserve" fill="#4abf8a">
<metadata> Svg Vector Icons : http://www.onlinewebfonts.com/icon </metadata>
<g><g transform="translate(0.000000,512.000000) scale(0.100000,-0.100000)"><path d="M6561.3,4980.8c-655.4-136.1-1251.3-519.3-1665.3-1069.3c-157.1-208.9-352.6-603.6-429.2-862.3c-122.6-423.5-143.7-900.7-57.5-1322.3l40.2-201.2L2293.6-630.2C333.2-2592.5,135.9-2795.6,116.7-2872.3c-15.3-57.5-19.2-281.7-15.3-718.6c7.7-590.2,9.6-642,49.8-760.8c59.4-180.1,111.2-249.1,233.8-310.4c208.9-103.5,335.4-118.8,948.6-116.9c743.5,3.8,688-13.4,1034.8,333.4l268.3,268.3h406.3h408.2v408.2v408.2l53.7,51.7l53.7,51.7h406.3h406.3v408.2v408.2l53.7,51.7l53.7,51.7h406.3h406.3v408.2v406.3l551.9,551.9l551.9,551.9l201.2-42.2c262.5-57.5,762.7-61.3,1023.3-11.5c1142.1,224.2,1993,1054,2236.3,2184.6c59.4,281.7,59.4,818.3,0,1100c-212.7,981.1-877.7,1743.8-1810.9,2073.4C7736,4992.3,7544.4,5021,7117,5019.1C6820,5019.1,6699.3,5009.5,6561.3,4980.8z M7465.8,4346.5c279.8-42.2,601.7-170.6,860.4-344.9c149.5-101.6,442.7-392.9,542.3-542.3c251-375.6,373.7-770.4,373.7-1216.9c0-975.4-642-1809-1590.5-2065.8c-168.6-46-216.5-49.8-540.4-49.8c-381.4,0-496.3,19.2-770.4,130.3l-120.7,49.8l-770.4-772.3l-772.3-770.4v-243.4v-245.3h-243.4h-245.3l-214.6-214.6l-216.5-216.5V-2399v-245.3h-243.4h-245.3l-214.6-214.6l-216.5-216.5v-243.4v-245.3h-245.3h-243.4l-220.4-222.3c-270.2-272.1-392.8-343-647.7-375.6c-308.5-38.3-586.4,7.7-678.4,111.1c-32.6,36.4,42.2,113.1,2303.4,2374.3C5263.9,481.3,5444.1,667.1,5444.1,724.6c0,84.3-72.8,157.1-157.1,157.1c-57.5,0-239.5-176.3-2328.3-2265.1c-2176.9-2176.9-2267-2263.2-2267-2199.9c0,139.9,42.2,394.8,78.6,479.1c30.7,69,494.4,544.2,2221,2270.8l2184.6,2184.6L5126,1472c-111.1,274-130.3,389-130.3,770.4c-1.9,331.5,1.9,367.9,51.7,546.2c199.3,714.8,732,1274.4,1421.9,1490.9C6793.2,4381,7103.6,4402.1,7465.8,4346.5z"/><path d="M7460,3486c-237.6-40.2-456.1-205-569.2-429.2c-53.7-107.3-57.5-130.3-57.5-325.8c0-195.5,3.8-220.4,59.4-335.4c74.7-159.1,212.7-297,371.8-371.8c115-55.6,139.9-59.4,325.8-59.4c185.9,0,210.8,3.8,331.5,61.3c665,316.2,550,1299.3-170.5,1452.6C7603.8,3509,7603.8,3509,7460,3486z M7732.2,3139.2c47.9-15.3,113-59.4,164.8-111.1c136-134.1,170.6-312.4,93.9-479.1c-80.5-176.3-205-256.8-402.4-258.7c-107.3,0-139.9,7.7-220.4,57.5c-187.8,116.9-266.4,348.8-182,538.5c55.6,122.6,105.4,176.3,222.3,230C7515.6,3167.9,7613.4,3173.7,7732.2,3139.2z"/></g></g>
</svg>